<svg width="630" height="120" viewBox="0 0 630 120" fill="none" xmlns="http://www.w3.org/2000/svg">
<path fill-rule="evenodd" clip-rule="evenodd" d="M56.0211 8L59.5127 19.1778C67.88 45.9637 52.9589 74.4845 26.1632 82.8581L14.9858 86.351L8 63.9963L19.1774 60.5034C33.6172 55.9909 41.6713 40.6121 37.1572 26.161L33.6656 14.9833L56.0211 8Z" fill="url(#paint0_linear_78_880)"/>
<path fill-rule="evenodd" clip-rule="evenodd" d="M105.018 33.6641L93.8398 37.1557C67.0543 45.5228 52.1008 74.0273 60.4743 100.823L63.9672 112L86.3219 105.014L82.829 93.8368C78.3173 79.3994 86.3744 64.0246 100.823 59.5112L112.001 56.0196L105.018 33.6641Z" fill="url(#paint1_linear_78_880)"/>
<path fill-rule="evenodd" clip-rule="evenodd" d="M112.001 56.0189L14.9858 86.3363L7.99997 63.9816L105.016 33.6642L112.001 56.0189Z" fill="url(#paint2_linear_78_880)"/>
<path d="M599.884 100.26C590.347 100.26 582.653 97.0088 576.476 90.3981L586.338 81.4033C590.456 86.0633 594.791 88.3391 599.559 88.3391C604.544 88.3391 607.362 85.8465 607.362 82.487C607.362 79.561 605.953 77.9354 597.066 75.8763C582.003 72.3001 579.727 65.4726 579.727 58.3201C579.727 48.4583 587.53 41.089 600.751 41.089C609.854 41.089 615.923 43.3648 621.667 50.8424L611.046 58.9703C608.337 54.6355 604.869 52.9015 601.076 52.9015C597.066 52.9015 594.032 54.4187 594.032 57.8866C594.032 59.8373 594.899 61.5713 601.618 63.3052C617.982 67.5317 621.775 73.6005 621.775 82.0535C621.775 92.4572 612.347 100.26 599.884 100.26Z" fill="black"/>
<path d="M544.13 100.26C534.052 100.26 528.958 96.0335 525.924 89.6395V98.8511H511.727V19.7397H526.357V51.1676C529.392 45.2071 534.485 41.3057 544.13 41.3057C559.627 41.3057 571.982 54.6355 571.982 70.8912C571.982 87.147 559.627 100.26 544.13 100.26ZM525.924 70.8912C525.924 79.6693 532.101 87.0386 541.746 87.0386C551.066 87.0386 557.352 79.3442 557.352 70.7828C557.352 62.0047 551.066 54.5271 541.746 54.5271C532.101 54.5271 525.924 62.1131 525.924 70.8912Z" fill="black"/>
<path d="M467.38 100.26C451.883 100.26 439.529 87.147 439.529 70.8913C439.529 54.6355 451.883 41.3058 467.38 41.3058C477.134 41.3058 482.227 45.3155 485.262 51.3844V42.4979H499.783V98.8512H485.587V89.6396C482.552 96.0335 477.459 100.26 467.38 100.26ZM454.159 70.7829C454.159 79.3443 460.445 87.0387 469.765 87.0387C479.41 87.0387 485.587 79.6694 485.587 70.8913C485.587 62.1132 479.41 54.5271 469.765 54.5271C460.445 54.5271 454.159 62.0048 454.159 70.7829Z" fill="black"/>
<path d="M415.162 98.8511V19.7397H429.792V98.8511H415.162Z" fill="black"/>
<path d="M376.878 100.26C359.43 100.26 347.726 87.0386 347.726 70.7829C347.726 54.5271 359.972 41.089 376.878 41.089C393.784 41.089 405.488 54.5271 405.488 70.7829C405.488 72.4084 405.38 74.1424 405.055 75.9847H362.898C364.524 82.5954 369.509 87.2554 376.878 87.2554C383.163 87.2554 388.04 84.0042 390.641 79.6693L402.02 88.2307C397.469 95.2749 388.04 100.26 376.878 100.26ZM362.898 65.0392H390.75C389.124 58.7536 383.814 53.6601 376.661 53.6601C369.725 53.6601 364.524 58.3201 362.898 65.0392Z" fill="black"/>
<path d="M309.378 98.8511L285.861 42.4978H303.2L314.471 74.6842C315.446 77.3935 316.313 80.753 316.855 83.6791C317.397 80.753 318.264 77.3935 319.239 74.6842L330.51 42.4978H347.524L324.116 98.8511H309.378Z" fill="black"/>
<path d="M265.287 98.8512V42.4979H279.917V98.8512H265.287ZM263.77 29.1682C263.77 24.5082 267.563 20.6068 272.548 20.6068C277.642 20.6068 281.326 24.5082 281.326 29.1682C281.326 34.0449 277.642 37.8379 272.548 37.8379C267.563 37.8379 263.77 33.9365 263.77 29.1682Z" fill="black"/>
<path d="M225.524 98.8512V42.4979H239.721V53.2267C241.671 45.0988 247.415 40.6556 257.169 41.1975V54.9607H255.11C246.657 54.9607 240.154 60.596 240.154 70.0243V98.8512H225.524Z" fill="black"/>
<path d="M208.063 98.8511C196.9 98.8511 190.832 93.6493 190.832 81.4033V54.9606H182.92V42.4978H190.832V31.1188L205.462 29.6016V42.4978H217.383V54.9606H205.462V80.6447C205.462 84.2209 207.196 85.8465 210.013 85.8465H216.082V98.8511H208.063Z" fill="black"/>
<path d="M156.822 100.26C147.285 100.26 139.59 97.0088 133.413 90.3981L143.275 81.4033C147.393 86.0633 151.728 88.3391 156.496 88.3391C161.481 88.3391 164.299 85.8465 164.299 82.487C164.299 79.561 162.89 77.9354 154.004 75.8763C138.94 72.3001 136.664 65.4726 136.664 58.3201C136.664 48.4583 144.467 41.089 157.688 41.089C166.792 41.089 172.861 43.3648 178.604 50.8424L167.984 58.9703C165.275 54.6355 161.807 52.9015 158.014 52.9015C154.004 52.9015 150.969 54.4187 150.969 57.8866C150.969 59.8373 151.836 61.5713 158.555 63.3052C174.92 67.5317 178.713 73.6005 178.713 82.0535C178.713 92.4572 169.284 100.26 156.822 100.26Z" fill="black"/>
<defs>
<linearGradient id="paint0_linear_78_880" x1="27.9999" y1="-38.5" x2="62.5866" y2="67.663" gradientUnits="userSpaceOnUse">
<stop stop-color="#F9DBCF"/>
<stop offset="0.333333" stop-color="#F6A509"/>
<stop offset="0.666667" stop-color="#F34D13"/>
<stop offset="1" stop-color="#7A03BD"/>
</linearGradient>
<linearGradient id="paint1_linear_78_880" x1="88.859" y1="157.052" x2="61.6473" y2="49.4983" gradientUnits="userSpaceOnUse">
<stop stop-color="#F9DBCF"/>
<stop offset="0.333333" stop-color="#F6A509"/>
<stop offset="0.666667" stop-color="#F34D13"/>
<stop offset="1" stop-color="#7A03BD"/>
</linearGradient>
<linearGradient id="paint2_linear_78_880" x1="2.59056" y1="90.1201" x2="128.254" y2="34.8891" gradientUnits="userSpaceOnUse">
<stop stop-color="#7A03BD"/>
<stop offset="0.333333" stop-color="#F34D13"/>
<stop offset="0.666667" stop-color="#F6A509"/>
<stop offset="1" stop-color="#F9DBCF"/>
</linearGradient>
</defs>
</svg>
